# xmcd
# 
# Track frame offsets:
#     183
#     29718
#     46223
#     69498
#     87708
#     104900
#     113305
#     137315
#     154030
# 
# Disc length: 2237
# 
# Revision: 1
# Processed by: cddbd v1.5.2PL0 Copyright (c) Steve Scherf et al.
# Submitted via: BonkEnc v1.0.8
# 
DISCID=7508bb09
DTITLE=Paul Blay - Tears
DYEAR=1983
DGENRE=Contemporary Jazz
TTITLE0=Tears
TTITLE1=Ostinato
TTITLE2=Music Matadoc
TTITLE3=Walkman
TTITLE4=Flame
TTITLE5=Hardly
TTITLE6=Head Over Heels
TTITLE7=Solo Rose
TTITLE8=For Roy E.
EXTD=YEAR: 1983
EXTT0=
EXTT1=
EXTT2=
EXTT3=
EXTT4=
EXTT5=
EXTT6=
EXTT7=
EXTT8=
PLAYORDER=
